Coordinates
version=1
nRows=24
nColumns=24
inDegrees=yes

Units are S.I. units (second, meters, Newtons, ...)
Angles are in degrees.

endheader
time	pelvis_tilt	pelvis_list	pelvis_rotation	pelvis_tx	pelvis_ty	pelvis_tz	hip_flexion_r	hip_adduction_r	hip_rotation_r	knee_angle_r	ankle_angle_r	subtalar_angle_r	mtp_angle_r	hip_flexion_l	hip_adduction_l	hip_rotation_l	knee_angle_l	ankle_angle_l	subtalar_angle_l	mtp_angle_l	lumbar_extension	lumbar_bending	lumbar_rotation
      0.73400000	     -5.44946253	      1.33182056	      1.76122414	     -0.44900523	      1.07004547	      0.34311090	     16.99225848	      2.10469690	     -0.91207964	    -18.50919341	      8.02932451	     -6.57910172	      4.19512950	     20.60763814	     -3.55959970	     -6.12807606	    -70.44602830	      4.82079711	      1.33348678	      1.29612071	     -4.55926807	      3.45672900	      1.16874224
      0.73816667	     -5.41728219	      1.43572165	      1.66243230	     -0.44377539	      1.07108364	      0.34361070	     16.47653503	      2.03492558	     -0.87901113	    -18.15042032	      8.12995709	     -6.42409008	      4.18620008	     21.05820094	     -3.49534097	     -6.32636906	    -70.17916503	      5.13232122	      1.52866726	      1.26793180	     -4.60889216	      3.29348174	      1.37879993
      0.74233333	     -5.36974924	      1.53933647	      1.55491557	     -0.43855047	      1.07211629	      0.34411099	     15.94394975	      1.96525698	     -0.84109225	    -17.78731967	      8.22702309	     -6.26981296	      4.17783843	     21.47724005	     -3.43503963	     -6.53927972	    -69.85454280	      5.43502818	      1.71602225	      1.24249004	     -4.67893646	      3.13033511	      1.59154327
      0.74650000	     -5.32515530	      1.63210740	      1.43443360	     -0.43334558	      1.07309401	      0.34461405	     15.41949993	      1.90839036	     -0.79370680	    -17.42801593	      8.31634008	     -6.12025638	      4.16992595	     21.88926542	     -3.38870631	     -6.76325439	    -69.48634585	      5.74562109	      1.93325428	      1.22188683	     -4.74373463	      2.98175671	      1.80508105
      0.75066667	     -5.29803597	      1.72840736	      1.29868539	     -0.42814606	      1.07399906	      0.34512124	     14.91914488	      1.84793490	     -0.72902746	    -17.07391202	      8.36544327	     -5.97558956	      4.16599095	     22.30628092	     -3.34390428	     -7.01162054	    -69.07068468	      6.05569598	      2.12044808	      1.21466389	     -4.78676527	      2.84346336	      1.94772885
      0.75483333	     -5.21935600	      1.80236879	      1.17246571	     -0.42298573	      1.07492746	      0.34561508	     14.35773782	      1.80912738	     -0.67700645	    -16.70549963	      8.48128355	     -5.83325699	      4.15734301	     22.66528609	     -3.32221524	     -7.24277488	    -68.61713456	      6.35124726	      2.36967432	      1.19562764	     -4.90382891	      2.70993172	      2.25166259
      0.75900000	     -5.18915431	      1.89163557	      1.02237369	     -0.41781552	      1.07573386	      0.34613414	     13.86041766	      1.75561157	     -0.59764355	    -16.35715240	      8.53750976	     -5.69347070	      4.15389562	     23.05786184	     -3.29293678	     -7.51342526	    -68.11195264	      6.64952721	      2.57554499	      1.19115151	     -4.95459643	      2.57016688	      2.38607959
      0.76316667	     -5.13214349	      1.95677295	      0.88467979	     -0.41266909	      1.07652365	      0.34661461	     13.32882414	      1.72337081	     -0.53682546	    -15.99584837	      8.64548467	     -5.56800221	      4.14804370	     23.41866176	     -3.28206620	     -7.75922033	    -67.57173520	      6.93906858	      2.82461464	      1.18057304	     -5.03873666	      2.45965518	      2.65827686
      0.76733333	     -5.08730672	      2.01864721	      0.73536473	     -0.40754042	      1.07723968	      0.34710392	     12.81717735	      1.69472600	     -0.45727917	    -15.64343457	      8.72334566	     -5.44306876	      4.14249731	     23.78171415	     -3.27906586	     -8.01962966	    -66.99009325	      7.22524175	      3.05316238	      1.17278411	     -5.11005090	      2.35104758	      2.86718709
      0.77150000	     -5.04972964	      2.07866364	      0.58577364	     -0.40242215	      1.07789866	      0.34758229	     12.31476381	      1.66589182	     -0.37506391	    -15.29126557	      8.80385897	     -5.31366615	      4.13652927	     24.14230791	     -3.27490767	     -8.27820094	    -66.36530814	      7.50085026	      3.26999202	      1.16469691	     -5.17927357	      2.23769324	      3.08458760
      0.77566667	     -5.00994865	      2.14138175	      0.42574552	     -0.39730877	      1.07851158	      0.34806236	     11.81852742	      1.63232214	     -0.29259150	    -14.95557453	      8.87768916	     -5.19094563	      4.13370155	     24.48474445	     -3.27045902	     -8.54958025	    -65.69117214	      7.77428344	      3.49335763	      1.16225510	     -5.23964288	      2.14436902	      3.23953620
      0.77983333	     -4.97402585	      2.18205554	      0.27682485	     -0.39220885	      1.07905175	      0.34851537	     11.32325199	      1.61889259	     -0.21479610	    -14.61295881	      8.96304508	     -5.07131883	      4.13092509	     24.82860193	     -3.28320775	     -8.79849656	    -64.98963308	      8.04200149	      3.71861582	      1.15949326	     -5.30450625	      2.06343154	      3.43403185
      0.78400000	     -4.94369386	      2.23087296	      0.12505168	     -0.38712375	      1.07954044	      0.34895887	     10.83897277	      1.59455556	     -0.13174171	    -14.27750720	      9.04849224	     -4.95296148	      4.12875260	     25.16477702	     -3.28312770	     -9.05005710	    -64.23873097	      8.29594389	      3.93488223	      1.15743483	     -5.36223779	      1.97539285	      3.60981549
      0.78816667	     -4.91434779	      2.25309694	     -0.01734023	     -0.38204577	      1.07995272	      0.34937963	     10.35422556	      1.59586488	     -0.05808093	    -13.93976069	      9.13726076	     -4.84199124	      4.12653254	     25.49884194	     -3.30783713	     -9.28246446	    -63.46406385	      8.54702305	      4.15896540	      1.15549144	     -5.41913828	      1.91633718	      3.79498833
      0.79233333	     -4.89406751	      2.27912836	     -0.15887639	     -0.37697873	      1.08031087	      0.34978364	      9.88254509	      1.59009415	      0.01830105	    -13.60719430	      9.22778962	     -4.73357562	      4.12443188	     25.82945887	     -3.32219631	     -9.50847476	    -62.64159541	      8.78448028	      4.38067930	      1.15333278	     -5.46800985	      1.85437545	      3.97105705
      0.79650000	     -4.88130468	      2.29381751	     -0.29393861	     -0.37191841	      1.08058874	      0.35016743	      9.42156468	      1.59395465	      0.08717542	    -13.28142908	      9.32247339	     -4.62363841	      4.12261638	     26.16059395	     -3.34241679	     -9.71900626	    -61.78772404	      9.01546361	      4.59849172	      1.15133091	     -5.50684923	      1.80758964	      4.13546299
      0.80066667	     -4.88348570	      2.29940632	     -0.42000732	     -0.36685624	      1.08078383	      0.35052453	      8.97687116	      1.60487183	      0.15027091	    -12.95808454	      9.42713533	     -4.52278148	      4.11975671	     26.49939194	     -3.36514446	     -9.91324297	    -60.89916531	      9.23053058	      4.82210933	      1.14811251	     -5.52893493	      1.77034217	      4.31128636
      0.80483333	     -4.87756058	      2.29232170	     -0.53922656	     -0.36181289	      1.08093219	      0.35085979	      8.52513793	      1.62633835	      0.20940911	    -12.63825371	      9.52488814	     -4.42556687	      4.11721799	     26.82048797	     -3.39323983	    -10.08642419	    -59.97447751	      9.43695478	      5.04007505	      1.14558615	     -5.56018809	      1.75390279	      4.45766561
      0.80900000	     -4.89336285	      2.27561016	     -0.64808532	     -0.35676605	      1.08098837	      0.35116676	      8.09658656	      1.65627329	      0.26608999	    -12.32097515	      9.62622209	     -4.33525659	      4.11468398	     27.15624884	     -3.42194424	    -10.23847341	    -59.01635238	      9.62445545	      5.24950194	      1.14358841	     -5.56553895	      1.74681116	      4.58993997
      0.81316667	     -4.90285637	      2.25411076	     -0.74917738	     -0.35172345	      1.08101874	      0.35145234	      7.65978343	      1.68828048	      0.31555444	    -12.00101033	      9.72756497	     -4.24987092	      4.11141134	     27.47211526	     -3.44696498	    -10.37268555	    -58.01549327	      9.79769707	      5.46617183	      1.14158522	     -5.57960977	      1.74686528	      4.71961950
      0.81733333	     -4.91988443	      2.22179850	     -0.83956052	     -0.34668782	      1.08097486	      0.35171335	      7.23275211	      1.73029412	      0.36074101	    -11.68716544	      9.83291706	     -4.17001488	      4.10769843	     27.78687893	     -3.47304265	    -10.48194107	    -56.98059118	      9.95064566	      5.66704156	      1.14014341	     -5.58581320	      1.76365671	      4.83763193
      0.82150000	     -4.95195675	      2.18403075	     -0.91933817	     -0.34165164	      1.08084421	      0.35194217	      6.82158036	      1.77586863	      0.39863067	    -11.37487939	      9.94018193	     -4.09455305	      4.10400480	     28.10793479	     -3.49453984	    -10.57060826	    -55.91245627	     10.08472012	      5.86597827	      1.13967899	     -5.57633804	      1.78478496	      4.93760195
      0.82566667	     -5.00586715	      2.13412141	     -0.98527132	     -0.33661005	      1.08062045	      0.35213534	      6.43382789	      1.83264914	      0.43074203	    -11.06662789	     10.05126652	     -4.02338252	      4.10043407	     28.44299934	     -3.51552494	    -10.62702683	    -54.81028520	     10.19913853	      6.04742352	      1.14008046	     -5.53956580	      1.82478155	      5.02426620
      0.82983333	     -5.04957642	      2.07885239	     -1.04315124	     -0.33156867	      1.08037542	      0.35230809	      6.03255168	      1.89319908	      0.45789334	    -10.75539885	     10.16256217	     -3.95802572	      4.09556124	     28.75218074	     -3.53291728	    -10.66494271	    -53.66779472	     10.29241507	      6.22290046	      1.14141351	     -5.51549262	      1.87098056	      5.10124465
